<svg id="visual" viewBox="0 0 900 600" width="900" height="600" xmlns="http://www.w3.org/2000/svg" xmlns:xlink="http://www.w3.org/1999/xlink" version="1.1"><rect x="0" y="0" width="900" height="600" fill="#FFFFFF"></rect><path d="M507 0L490.8 7.2C474.7 14.3 442.3 28.7 435.5 43C428.7 57.3 447.3 71.7 451.2 86C455 100.3 444 114.7 445.3 128.8C446.7 143 460.3 157 453.8 171.2C447.3 185.3 420.7 199.7 412 214C403.3 228.3 412.7 242.7 426.7 257C440.7 271.3 459.3 285.7 466.5 300C473.7 314.3 469.3 328.7 472.8 343C476.3 357.3 487.7 371.7 475.2 386C462.7 400.3 426.3 414.7 431.8 428.8C437.3 443 484.7 457 501.2 471.2C517.7 485.3 503.3 499.7 499 514C494.7 528.3 500.3 542.7 479.3 557C458.3 571.3 410.7 585.7 386.8 592.8L363 600L0 600L0 592.8C0 585.7 0 571.3 0 557C0 542.7 0 528.3 0 514C0 499.7 0 485.3 0 471.2C0 457 0 443 0 428.8C0 414.7 0 400.3 0 386C0 371.7 0 357.3 0 343C0 328.7 0 314.3 0 300C0 285.7 0 271.3 0 257C0 242.7 0 228.3 0 214C0 199.7 0 185.3 0 171.2C0 157 0 143 0 128.8C0 114.7 0 100.3 0 86C0 71.7 0 57.3 0 43C0 28.7 0 14.3 0 7.2L0 0Z" fill="#F3274C" stroke-linecap="round" stroke-linejoin="miter"></path></svg>